# xmcd
#
# Track frame offsets: 
#        150
#        24545
#        39336
#        53413
#        73516
#        91949
#        108510
#        136374
#        158424
#        177698
#        194757
#        223023
#
# Disc length: 3235 seconds
#
# Revision: 0
# Processed by: cddbd v1.5.2PL0 Copyright (c) Steve Scherf et al.
# Submitted via: ExactAudioCopy v0.99pb5
#
DISCID=a40ca10c
DTITLE=Roger Hoard - Sounds of Christmas
DYEAR=2008
DGENRE=Country
TTITLE0=Silent Night
TTITLE1=Let It Snow
TTITLE2=Santa Claus Is Coming To Town
TTITLE3=Blue Christmas
TTITLE4=Jolly Old St. Nicholas
TTITLE5=Oh Christmas Tree
TTITLE6=Hark, The Herald Angels Sing
TTITLE7=God Rest Ye Merry Gentlemen
TTITLE8=Jingle Bells
TTITLE9=The Chipmunk Song
TTITLE10=What Child Is This
TTITLE11=It Came Upon A Midnight Clear
EXTD=
EXTT0=
EXTT1=
EXTT2=
EXTT3=
EXTT4=
EXTT5=
EXTT6=
EXTT7=
EXTT8=
EXTT9=
EXTT10=
EXTT11=
PLAYORDER=
